<svg width="21" height="22" viewBox="0 0 21 22" fill="none" xmlns="http://www.w3.org/2000/svg">
<g clip-path="url(#clip0_1944_381)">
<path d="M19.4867 9.17113C19.1789 8.93283 18.791 8.63518 18.7441 8.44071C18.7638 8.06427 18.8662 7.69775 19.0432 7.36976C19.3145 6.71603 19.5945 6.0386 19.2832 5.47526C18.9719 4.91192 18.2641 4.82064 17.5833 4.74484C17.2304 4.74236 16.8827 4.65523 16.5668 4.49011C16.4093 4.15724 16.3266 3.79085 16.325 3.41916C16.2485 2.70428 16.1694 1.96475 15.6294 1.63422C15.0894 1.3037 14.4434 1.59314 13.8208 1.88163C13.5081 2.06742 13.1588 2.17488 12.8 2.19572C12.6122 2.14278 12.3296 1.7392 12.1044 1.416C11.7096 0.857243 11.2652 0.223633 10.6235 0.223633C9.98182 0.223633 9.53751 0.857243 9.14532 1.416C8.91752 1.7401 8.6349 2.14642 8.44969 2.19662C8.09125 2.17394 7.74227 2.0666 7.42888 1.88253C6.80282 1.5931 6.15764 1.3046 5.62288 1.62964C5.08812 1.95469 4.99858 2.6997 4.92203 3.41912C4.91954 3.78953 4.83688 4.1545 4.68029 4.48643C4.36497 4.64919 4.01865 4.7347 3.6673 4.73658C2.98561 4.81691 2.28039 4.90002 1.96651 5.467C1.65262 6.03398 1.92831 6.71149 2.20307 7.36612C2.38066 7.69519 2.48305 8.06303 2.5022 8.44071C2.45178 8.63792 2.06743 8.93557 1.75961 9.17113C1.22746 9.58198 0.624023 10.0495 0.624023 10.7232C0.624023 11.397 1.22746 11.8645 1.76051 12.2754C2.06832 12.5137 2.45614 12.8113 2.5031 13.0058C2.48337 13.3822 2.38099 13.7487 2.20397 14.0767C1.93268 14.7305 1.6527 15.4079 1.96398 15.9712C2.27526 16.5346 2.98308 16.6259 3.66392 16.7017C4.01681 16.7041 4.36449 16.7913 4.68041 16.9564C4.8379 17.2893 4.9206 17.6556 4.92215 18.0273C4.99866 18.7422 5.07781 19.4818 5.61779 19.8123C6.15776 20.1428 6.79862 19.8451 7.42207 19.5603C7.73791 19.3766 8.0893 19.2704 8.44985 19.2499C8.63767 19.3028 8.92025 19.7064 9.14549 20.0296C9.53763 20.5884 9.98199 21.222 10.6237 21.222C11.2654 21.222 11.7097 20.5884 12.1019 20.0296C12.3297 19.7055 12.6123 19.2992 12.7975 19.249C13.1562 19.2703 13.5054 19.3777 13.8184 19.5631C14.4409 19.8479 15.0861 20.1401 15.6217 19.816C16.1574 19.4919 16.246 18.7459 16.3226 18.0301C16.3251 17.6597 16.4077 17.2947 16.5643 16.9628C16.8802 16.7987 17.2275 16.7122 17.5799 16.7099C18.2616 16.6296 18.9668 16.5465 19.2807 15.9795C19.5946 15.4125 19.3112 14.7396 19.0407 14.085C18.8637 13.7543 18.7625 13.3848 18.7451 13.0058C18.7955 12.8086 19.1799 12.511 19.4877 12.2754C20.0199 11.8637 20.6242 11.3962 20.6242 10.7233C20.6242 10.0504 20.0197 9.58198 19.4867 9.17113Z" fill="url(#paint0_linear_1944_381)"/>
<path d="M8.01504 13.0055C7.87821 13.0055 7.74933 12.9378 7.66724 12.8228L5.84123 10.2665V12.5489C5.84123 12.8011 5.64657 13.0055 5.40646 13.0055C5.16635 13.0055 4.97168 12.8011 4.97168 12.5489V8.89695C4.97168 8.64483 5.16635 8.44043 5.40646 8.44043C5.54329 8.44043 5.67217 8.50809 5.75425 8.62304L7.58026 11.1794V8.89695C7.58026 8.64483 7.77493 8.44043 8.01504 8.44043C8.25515 8.44043 8.44982 8.64483 8.44982 8.89695V12.5489C8.44969 12.7453 8.3299 12.9197 8.15244 12.9817C8.10817 12.9975 8.06179 13.0055 8.01504 13.0055Z" fill="#0D1117"/>
<path d="M11.4932 13.0055H9.75411C9.514 13.0055 9.31934 12.8011 9.31934 12.5489V8.89695C9.31934 8.64483 9.514 8.44043 9.75411 8.44043H11.4932C11.7333 8.44043 11.928 8.64483 11.928 8.89695C11.928 9.14906 11.7333 9.35346 11.4932 9.35346H10.1889V12.0925H11.4932C11.7333 12.0925 11.928 12.2969 11.928 12.549C11.928 12.8011 11.7333 13.0055 11.4932 13.0055Z" fill="#0D1117"/>
<path d="M11.4932 11.1796H9.75411C9.514 11.1796 9.31934 10.9752 9.31934 10.7231C9.31934 10.471 9.514 10.2666 9.75411 10.2666H11.4932C11.7333 10.2666 11.928 10.471 11.928 10.7231C11.928 10.9752 11.7333 11.1796 11.4932 11.1796Z" fill="#0D1117"/>
<path d="M15.8411 13.0059C15.6538 13.0061 15.4873 12.8803 15.4281 12.6936L14.9716 11.2538L14.5151 12.6936C14.4596 12.8906 14.2807 13.0203 14.0856 13.005C13.8925 12.9973 13.7274 12.8567 13.6804 12.6599L12.8109 9.00785C12.7527 8.76305 12.8947 8.51513 13.1278 8.4541C13.361 8.39307 13.5971 8.54209 13.6552 8.78689L14.1621 10.9178L14.5595 9.66611C14.6628 9.42684 14.9313 9.32083 15.1592 9.42932C15.2592 9.47695 15.3393 9.56109 15.3847 9.66611L15.782 10.9178L16.289 8.78689C16.3471 8.54209 16.5832 8.39307 16.8164 8.4541C17.0495 8.51513 17.1914 8.76301 17.1333 9.00785L16.2638 12.6599C16.2168 12.8567 16.0517 12.9973 15.8586 13.005L15.8411 13.0059Z" fill="#0D1117"/>
</g>
<defs>
<linearGradient id="paint0_linear_1944_381" x1="0.624023" y1="10.7227" x2="20.6242" y2="10.7227" gradientUnits="userSpaceOnUse">
<stop stop-color="#7AFFD7"/>
<stop offset="1" stop-color="#00FFB2"/>
</linearGradient>
<clipPath id="clip0_1944_381">
<rect width="20" height="21" fill="white" transform="translate(0.624023 0.222656)"/>
</clipPath>
</defs>
</svg>

